<svg width="119" height="119" viewBox="0 0 119 119" fill="none" xmlns="http://www.w3.org/2000/svg">
<circle cx="59.5" cy="59.5" r="56" fill="#63BAF3" stroke="#037DCE" stroke-width="7"/>
<path d="M94.9126 43.6395C94.5863 43.6395 94.2514 43.6876 93.9166 43.7816L90.1314 44.8498L86.2015 35.0402C85.0879 32.2612 81.7966 30 78.865 30H42.0827C39.1505 30 35.8596 32.2612 34.7463 35.0402L30.8212 44.8363L27.0831 43.7813C26.7486 43.6871 26.4137 43.639 26.0873 43.639C24.2982 43.6392 23 45.0395 23 46.9683V49.2543C23 51.506 24.7884 53.3383 26.986 53.3383H27.4143L26.7799 54.9216C25.7454 57.5027 24.9034 61.8741 24.9034 64.6659V84.1537C24.9034 86.4054 26.6916 88.2378 28.8894 88.2378H34.0951C36.2927 88.2378 38.0811 86.4054 38.0811 84.1537V79.2874H82.8664V84.1537C82.8664 86.4054 84.6548 88.2378 86.8524 88.2378H92.0574C94.2551 88.2378 96.0434 86.4054 96.0434 84.1537V64.6662C96.0434 61.8752 95.2014 57.5037 94.1669 54.9219L93.5325 53.3386H94.014C96.2116 53.3386 98 51.5063 98 49.2546V46.9686C98 45.04 96.7014 43.6395 94.9126 43.6395ZM33.6787 51.1206L39.6241 36.2829C40.2902 34.6207 42.2698 33.2603 44.0235 33.2603H76.9241C78.6779 33.2603 80.6575 34.6204 81.3236 36.2829L87.2691 51.1206C87.9347 52.7828 87.0449 54.1432 85.2912 54.1432H35.6568C33.9025 54.1427 33.0129 52.7828 33.6787 51.1206ZM46.9504 69.8886C46.9504 70.7872 46.2326 71.5218 45.3562 71.5218H34.0623C33.1852 71.5218 32.4678 70.7867 32.4678 69.8886V64.3352C32.4678 63.4369 33.1852 62.7019 34.0623 62.7019H45.3564C46.2327 62.7019 46.9505 63.4369 46.9505 64.3352V69.8886H46.9504ZM88.3725 69.8886C88.3725 70.7872 87.6547 71.5218 86.7785 71.5218H75.4844C74.608 71.5218 73.8904 70.7867 73.8904 69.8886V64.3352C73.8904 63.4369 74.608 62.7019 75.4844 62.7019H86.7785C87.6547 62.7019 88.3725 63.4369 88.3725 64.3352V69.8886Z" fill="white"/>
</svg>
