<svg width="119" height="119" viewBox="0 0 119 119" fill="none" xmlns="http://www.w3.org/2000/svg">
<circle cx="59.5" cy="59.5" r="56" fill="#63BAF3" stroke="#037DCE" stroke-width="7"/>
<path d="M59.9986 54.78C64.1485 54.78 67.6325 57.592 68.6167 61.3941C69.8539 66.1612 69.6867 71.3856 75.1257 74.0985C79.9535 75.7413 81.7798 77.8059 81.7798 83.3411C81.7798 87.7589 77.9999 92.4549 73.1262 93.041C67.6769 93.8594 63.4352 92.7894 59.9971 90.8299C56.5591 92.7894 52.3159 93.8609 46.874 93.041C41.9974 92.4549 38.2189 87.7426 38.2189 83.3411C38.2189 77.9243 40.1681 75.6317 44.987 74.0615C50.9173 71.0319 50.1211 65.7217 51.4442 61.1603C51.9882 59.3146 53.1159 57.6951 54.6583 56.5448C56.2007 55.3944 58.0745 54.7752 59.9986 54.78ZM87.167 51.4885C85.6973 50.2113 79.6989 55.1974 77.8119 57.6631C76.6649 58.9788 75.9515 60.7873 75.9515 62.7824C75.9515 66.7947 78.8227 70.0477 82.3555 70.0477C85.0432 70.0477 87.3431 68.1785 88.2947 65.5204C90.1433 60.74 90.2454 54.1614 87.167 51.4885ZM32.8273 51.4885C29.7533 54.1614 29.8525 60.74 31.704 65.5204C32.6556 68.1785 34.9541 70.0477 37.6403 70.0477C41.176 70.0477 44.0442 66.7947 44.0442 62.7824C44.0442 60.7873 43.3323 58.9788 42.1853 57.6631C40.2969 55.1974 34.2999 50.2113 32.8273 51.4885ZM67.8944 25.2821C82.8247 27.8159 81.7768 52.9611 69.8229 50.935C66.3745 50.3489 63.8141 47.2083 63.4248 43.4565C63.0297 39.6411 62.1402 24.3083 67.8944 25.2821ZM52.1028 25.2821C57.8585 24.3068 56.9676 39.6396 56.5724 43.4551C56.1832 47.2083 53.6257 50.3474 50.1773 50.9335C38.2204 52.9626 37.1741 27.8159 52.1028 25.2821Z" fill="white"/>
</svg>
