<svg width="119" height="119" viewBox="0 0 119 119" fill="none" xmlns="http://www.w3.org/2000/svg">
<circle cx="59.5" cy="59.5" r="56" fill="#63BAF3" stroke="#037DCE" stroke-width="7"/>
<path d="M30.3489 43.542C33.0407 49.9388 37.585 56.2659 43.944 58.9931C44.6699 59.3021 45.4941 59.5339 46.3409 59.7271C48.0347 57.1467 49.9779 55.053 52.2538 53.3381C54.2121 51.8702 56.2613 50.7191 58.3708 49.8152C57.7659 49.3825 57.1309 48.9885 56.4654 48.6332C53.819 47.2194 50.9533 45.9756 48.1631 44.6391C50.7869 45.3653 53.7963 45.6357 56.3066 46.5704C57.8718 47.1577 59.316 47.9688 60.6619 48.9345C64.677 47.5361 68.8735 46.864 73.0624 46.3542C69.6674 40.591 62.4237 35.9634 56.9644 33.8698C51.2632 31.6834 44.8059 31.413 38.462 30.741C34.5755 30.3314 30.3488 28.8482 27.2562 27.1177C26.553 26.7237 25.8045 27.3804 26.0464 28.1761C27.5663 33.1435 28.3376 38.7677 30.3489 43.542Z" fill="white"/>
<path d="M97.3808 42.7851C90.2278 46.7559 82.0238 47.2426 73.9862 48.1851C70.062 48.6487 66.1755 49.2203 62.4779 50.3637C61.6764 50.6109 60.875 50.889 60.0886 51.1981C57.7521 52.1097 55.4989 53.3071 53.3742 54.9063C51.378 56.4049 49.7448 58.1819 48.3686 60.1364C46.1758 63.2574 44.6485 66.8497 43.3933 70.5812C41.1022 77.3563 40.0512 84.5565 40.2554 91.718C40.3386 94.6228 40.3839 97.6434 41.0871 100.479C41.2459 101.104 41.3971 101.9 41.8735 102.364C42.4935 102.974 43.605 102.348 43.3555 101.46C41.5559 95.1944 42.675 87.8707 45.1626 81.8835C48.0208 75.0001 53.5405 70.9056 60.2852 68.4104C62.0772 67.746 63.9071 67.1666 65.7671 66.6181C65.8049 66.6027 65.8427 66.6027 65.8805 66.6027C66.251 66.6027 66.4098 67.1588 66.0242 67.3366C63.8314 68.3486 61.6538 69.3684 59.5819 70.4731C49.4347 75.8809 45.0038 88.4734 48.8071 88.4734C49.1172 88.4734 49.48 88.3884 49.8959 88.2107C55.7635 85.7309 62.7349 85.7078 69.1847 84.4872C71.4531 84.0623 73.661 83.4828 75.7328 82.6021C83.9595 79.0948 89.8421 72.2346 93.3429 63.9838C95.9516 57.8267 96.9648 50.557 98.9383 44.1603C99.1953 43.3414 98.6282 42.6384 97.9326 42.6384C97.7589 42.6305 97.5698 42.677 97.3808 42.7851Z" fill="white"/>
</svg>
