<svg width="119" height="119" viewBox="0 0 119 119" fill="none" xmlns="http://www.w3.org/2000/svg">
<circle cx="59.5" cy="59.5" r="56" fill="#63BAF3" stroke="#037DCE" stroke-width="7"/>
<path d="M26.1093 90.344H85.3113C86.4772 90.344 87.4207 89.3801 87.4207 88.1889C87.4207 86.9977 86.4772 86.0337 85.3113 86.0337H83.202V83.8786C83.202 82.6874 82.2585 81.7235 81.0926 81.7235H74.7646V77.4132H70.546V81.7235H64.218C63.0521 81.7235 62.1086 82.6874 62.1086 83.8786V86.0337H49.4526V83.8786C49.4526 82.6874 48.5092 81.7235 47.3433 81.7235H41.0153V77.4132H36.7966V81.7235H30.328C29.1621 81.7235 28.2187 82.6874 28.2187 83.8786V86.0337H26.1093C24.9434 86.0337 24 86.9977 24 88.1889C24 89.3801 24.9434 90.344 26.1093 90.344Z" fill="white"/>
<path d="M42.214 45.8044H29.5586L27.0586 57.2985H39.714L42.214 45.8044Z" fill="white"/>
<path d="M56.6955 57.2985L59.1954 45.8044H46.539L44.0391 57.2985H56.6955Z" fill="white"/>
<path d="M62.0589 32.6224C62.1968 31.9848 62.0444 31.3175 61.6449 30.806C61.2433 30.2967 60.6397 30 59.9991 30H49.9729L47.4727 41.4941H60.1293L62.0589 32.6224Z" fill="white"/>
<path d="M26.1105 73.103H36.2761L38.7764 61.6086H26.1207L24.0505 70.4806C23.7604 71.8215 24.7571 73.103 26.1105 73.103Z" fill="white"/>
<path d="M45.6517 30.0001H34.6888C33.7 30.0001 32.843 30.701 32.6289 31.688L30.4961 41.4941H43.1516L45.6517 30.0001Z" fill="white"/>
<path d="M40.6016 73.103H51.5654C52.5541 73.103 53.4109 72.4022 53.6252 71.4151L55.7581 61.6086H43.1014L40.6016 73.103Z" fill="white"/>
<path d="M73.464 57.2985L75.964 45.8044H63.3086L60.8086 57.2985H73.464Z" fill="white"/>
<path d="M90.4417 57.2985L92.9416 45.8044H80.2852L77.7852 57.2985H90.4417Z" fill="white"/>
<path d="M95.9494 32.6224C96.0873 31.9848 95.9349 31.3175 95.5354 30.806C95.1338 30.2967 94.5302 30 93.8896 30H83.7229L81.2227 41.4941H93.8792L95.9494 32.6224Z" fill="white"/>
<path d="M57.9411 70.4806C57.6509 71.8215 58.6476 73.103 60.001 73.103H70.026L72.5262 61.6086H59.8708L57.9411 70.4806Z" fill="white"/>
<path d="M79.4019 30H68.4388C67.45 30 66.593 30.7009 66.3789 31.6879L64.2461 41.4941H76.9016L79.4019 30Z" fill="white"/>
<path d="M74.3477 73.103H85.3114C86.3001 73.103 87.1569 72.4022 87.3712 71.4151L89.504 61.6086H76.8475L74.3477 73.103Z" fill="white"/>
</svg>
