<svg width="119" height="119" viewBox="0 0 119 119" fill="none" xmlns="http://www.w3.org/2000/svg">
<circle cx="59.5" cy="59.5" r="56" fill="#63BAF3" stroke="#037DCE" stroke-width="7"/>
<path d="M57.5218 76.0613L56.9023 91.8205L56.8198 92.7627L39.476 91.5208C38.4849 91.4351 37.5627 90.9855 36.7093 90.1718C35.8558 89.3582 35.2089 88.4232 34.7684 87.3668C34.4656 86.596 34.266 85.8109 34.1696 85.0115C34.0733 84.2121 34.1283 83.2843 34.3348 82.228C34.5413 81.1716 34.7065 80.3865 34.8304 79.8726C34.9542 79.3587 35.2502 78.4452 35.7182 77.1319C36.1862 75.8186 36.4477 75.0621 36.5028 74.8622C38.6501 75.2048 45.6564 75.6045 57.5218 76.0613ZM41.5407 50.9664L48.9738 67.1967L42.9035 63.2569C41.1691 65.3124 39.6343 67.3751 38.2991 69.445C36.9639 71.5148 35.966 73.2991 35.3052 74.798C34.6445 76.2968 34.1008 77.6458 33.6741 78.8449C33.2474 80.0439 32.9927 80.9432 32.9102 81.5428L32.745 82.4421L24.899 67.1539C24.431 66.4116 24.1832 65.6122 24.1557 64.7557C24.1282 63.8993 24.2108 63.2283 24.4035 62.743L24.7338 61.9722C25.6974 60.1736 27.2666 57.4899 29.4414 53.9212L23.6602 50.2384L41.5407 50.9664ZM92.3744 73.1064L84.611 88.4803C84.2807 89.3082 83.7783 89.972 83.1038 90.4716C82.4293 90.9712 81.8305 91.2638 81.3075 91.3495L80.5642 91.5208C78.6096 91.7206 75.5951 91.8919 71.5206 92.0347L71.851 99.0578L62.3532 83.3414L71.0664 67.8391L71.3555 75.2476C76.0355 75.7044 79.931 75.7758 83.0419 75.4618C86.1527 75.1477 88.4927 74.6766 90.0619 74.0486L92.3744 73.1064ZM59.9581 33.537C58.6642 35.3356 55.0166 41.5451 49.0151 52.1655L35.9247 44.1574L35.1401 43.6435L44.4314 28.3981C44.982 27.5131 45.8078 26.8707 46.909 26.471C48.0102 26.0713 49.1114 25.9286 50.2126 26.0428C50.8733 26.0999 51.5409 26.2712 52.2154 26.5567C52.8899 26.8421 53.468 27.1419 53.9498 27.456C54.4315 27.77 55.0028 28.2411 55.6635 28.8692C56.3242 29.4972 56.8198 29.9897 57.1501 30.3466C57.4805 30.7035 57.976 31.2673 58.6367 32.0381C59.2974 32.809 59.7379 33.3086 59.9581 33.537ZM87.0061 46.684L95.7606 62.2291C96.2561 63.2854 96.4282 64.3703 96.2768 65.4837C96.1254 66.5972 95.7468 67.6535 95.1412 68.6527C94.7833 69.2237 94.3291 69.7519 93.7785 70.2372C93.2279 70.7226 92.7048 71.1222 92.2093 71.4363C91.7137 71.7503 91.0461 72.0644 90.2065 72.3784C89.3668 72.6925 88.7199 72.9209 88.2656 73.0636C87.8114 73.2064 87.1025 73.4062 86.139 73.6631C85.1754 73.9201 84.5422 74.0914 84.2394 74.177C83.3034 72.1215 79.6557 65.8977 73.2963 55.5057L86.2215 47.155L87.0061 46.684ZM81.101 37.0057L86.9648 33.4513L77.88 49.4247L60.5776 48.5682L66.8131 44.8854C65.877 42.3445 64.8447 39.9749 63.716 37.7766C62.5872 35.5783 61.548 33.8153 60.5982 32.4878C59.6484 31.1602 58.7606 30.0183 57.9347 29.0619C57.1088 28.1055 56.4619 27.4417 55.9939 27.0705L55.2919 26.5138L72.0162 26.5567C72.8696 26.471 73.668 26.6209 74.4113 27.0063C75.1546 27.3917 75.6914 27.7986 76.0218 28.2268L76.476 28.8692C77.5497 30.6107 79.0913 33.3229 81.101 37.0057Z" fill="white"/>
</svg>
