<svg width="238" height="58" viewBox="0 0 238 58" fill="none" xmlns="http://www.w3.org/2000/svg">
<path d="M14.3043 1.76835C14.761 1.75676 15.1959 1.87529 15.6112 2.12289C16.0243 2.37207 16.2386 2.73767 16.2508 3.22286L16.2742 4.14319C15.9217 4.41133 15.5851 4.64471 15.2645 4.847C15.0077 5.01505 14.7515 5.1752 14.4941 5.32692C14.2368 5.47916 14.0597 5.55608 13.9614 5.55871L12.4944 5.59506C11.8096 5.61297 11.2763 5.81948 10.8951 6.21774C10.5134 6.61496 10.3321 7.15282 10.3491 7.83135L10.3863 9.28586C10.4086 10.1577 10.3273 11.1139 10.1417 12.1522C9.95563 13.1926 9.77804 14.1825 9.60631 15.1244L9.67437 17.7901L9.74455 20.5036L9.77858 21.8612L9.79187 22.3933C9.79506 22.4907 9.82377 22.6598 9.87907 22.9011C9.93383 23.1424 10.0216 23.3826 10.1417 23.6213C10.2624 23.861 10.4054 24.0675 10.5735 24.2413C10.7409 24.4152 10.9552 24.4979 11.2157 24.4915L12.5854 24.4573L14.0528 24.4199L15.4224 24.3862C15.5203 24.3836 15.7872 24.2803 16.2226 24.0748C16.6565 23.8699 17.1323 23.6318 17.6476 23.36C18.1622 23.0892 18.6695 22.8016 19.1666 22.4981C19.6648 22.1947 20.0247 21.9429 20.2486 21.7432C20.5038 21.5114 20.7585 21.2859 21.0142 21.0689C21.2694 20.8529 21.5113 20.7412 21.7394 20.736C21.9234 20.2787 22.0547 20.009 22.135 19.9257C22.2137 19.8435 22.3844 19.7977 22.6449 19.7919C22.8405 19.7867 23.1207 19.8846 23.4844 20.0864C23.8492 20.2876 24.0337 20.4836 24.0384 20.6775C24.0411 20.7755 23.9108 21.1585 23.6519 21.827C23.3908 22.4965 23.0766 23.2478 22.706 24.0817C22.336 24.9156 21.933 25.7179 21.4954 26.4881C21.0578 27.2589 20.6479 27.7788 20.2635 28.0464C20.1678 28.1787 19.8844 28.274 19.4144 28.3341C18.9422 28.3952 18.4461 28.4473 17.9256 28.4926C17.3386 28.5395 16.6708 28.5732 15.9206 28.5917L14.5515 28.6254L13.6227 28.6496C12.9373 28.6665 12.2515 28.6191 11.5629 28.5069C10.8749 28.3962 10.4187 28.4231 10.1949 28.5901L9.56431 28.7529L7.22967 29.345C7.13183 29.3471 6.92713 29.3281 6.61716 29.2876C6.30506 29.247 5.9701 29.1906 5.60961 29.1195C5.247 29.0468 4.91204 28.991 4.60153 28.9504C4.28996 28.9099 4.08633 28.8904 3.9885 28.893C3.72744 28.9004 3.48339 28.9378 3.25689 29.0078C3.0304 29.0784 2.83633 29.148 2.67576 29.217C2.48223 29.3192 2.28816 29.404 2.09463 29.4741C1.7352 29.4835 1.46351 29.4093 1.28114 29.2523C1.09718 29.0948 0.961598 28.9046 0.875465 28.6812C0.787205 28.4568 0.732441 28.2313 0.711174 28.0059C0.687779 27.7804 0.67555 27.6023 0.672892 27.4733C0.655346 26.7942 0.864831 26.3696 1.30082 26.1968C1.7368 26.0245 2.21425 25.8755 2.73318 25.7485C3.25158 25.6221 3.72797 25.4161 4.1613 25.1311C4.59356 24.845 4.79879 24.2497 4.77539 23.3457L4.67172 19.2741L4.96946 15.6296L4.92586 13.8854C4.92161 13.7563 4.93171 13.5056 4.95457 13.1326C4.9785 12.7607 5.01572 12.364 5.07154 11.942C5.12471 11.4563 5.1933 10.9369 5.27624 10.3848C5.26986 10.1266 5.19064 9.88589 5.03752 9.66357C4.88545 9.44179 4.80676 9.23317 4.80092 9.03931L4.78869 8.50513C4.76476 7.60113 4.61004 6.98266 4.32452 6.65025C4.03901 6.31942 3.72212 6.06761 3.37599 5.8985C3.0288 5.72992 2.71404 5.53553 2.43065 5.31586C2.1462 5.09776 1.99626 4.64787 1.97819 3.96987C1.97074 3.64694 2.03667 3.36194 2.17757 3.11539C2.31687 2.8699 2.48329 2.66445 2.67576 2.49745C2.86717 2.33151 3.05964 2.21298 3.2537 2.14291C3.44724 2.0739 3.59398 2.03755 3.69128 2.03544L14.3043 1.76835Z" fill="white"/>
<path d="M44.4707 2.88835L45.9945 3.8661L46.9207 4.17902C47.2791 4.43874 47.6066 4.68634 47.9049 4.9234C48.1707 5.15098 48.4248 5.36539 48.6657 5.5661C48.906 5.76734 49.057 5.92959 49.1182 6.05181C49.4973 6.45429 49.9582 6.84149 50.5022 7.21184C51.0455 7.58482 51.4438 8.05314 51.6974 8.61683C51.8707 8.91394 51.9983 9.36858 52.0818 9.97651C52.1637 10.5855 52.2918 11.0385 52.4651 11.3362C53.2074 12.5789 53.5865 13.6552 53.6014 14.5645C53.6136 15.4748 53.5094 16.2502 53.2882 16.8924L52.1041 19.8725L51.6607 21.1569C51.5437 21.4935 51.2385 21.9534 50.7435 22.5376C50.2491 23.1208 49.6972 23.7198 49.09 24.3325C48.4812 24.9472 47.9144 25.5146 47.3902 26.0362C46.8643 26.5587 46.5246 26.8964 46.3688 27.0481C45.9312 27.6171 45.3698 28.0159 44.6882 28.2466C44.0049 28.4758 43.36 28.6243 42.7507 28.6907C41.6953 29.0511 40.7148 29.3666 39.811 29.6416C38.906 29.9155 38.0059 29.9003 37.1116 29.5974C36.7415 29.4725 36.3917 29.3097 36.0626 29.1137C35.7356 28.9178 35.2608 28.7144 34.6446 28.5048C34.5207 28.4642 34.3638 28.4184 34.1735 28.3715C33.9837 28.3235 33.7742 28.2782 33.5477 28.2361C33.2904 28.1818 33.0378 28.1149 32.7906 28.0312L32.0042 27.7641C31.7559 27.6798 31.456 27.527 31.103 27.3047C30.7478 27.0813 30.4272 26.8369 30.1412 26.5693C29.7924 26.2806 29.4234 25.9498 29.0353 25.5789C28.3292 24.9304 27.6194 24.2371 26.9085 23.5001C26.1977 22.7652 25.7579 21.7885 25.5937 20.57C25.473 18.8226 25.4278 17.0294 25.4586 15.1961C25.4884 13.3618 25.7665 11.6802 26.2944 10.1514C26.4002 9.84586 26.5262 9.58141 26.6719 9.35751C26.8181 9.13309 26.9824 8.90762 27.1653 8.67899C27.3477 8.45036 27.5481 8.21961 27.7667 7.98571C27.9847 7.75234 28.2292 7.4431 28.5015 7.05696C28.6588 6.59811 28.8768 6.193 29.1538 5.84267C29.4298 5.49287 29.769 5.12938 30.1752 4.75482C30.2071 4.66263 30.4469 4.41925 30.894 4.02467C31.3396 3.63009 31.858 3.22393 32.4498 2.80933C33.0405 2.39473 33.6365 2.0423 34.2378 1.75098C34.837 1.4586 35.2922 1.36589 35.6005 1.47019L37.0712 1.4054C37.4721 1.54078 37.8405 1.64878 38.175 1.72675C38.5094 1.80682 38.8779 1.81209 39.2814 1.74308C39.6727 1.7062 40.0423 1.68671 40.3873 1.68355C40.7329 1.68091 41.061 1.73254 41.3699 1.83632L43.5923 2.58965L44.4707 2.88835ZM39.2538 5.11726C38.7295 4.93867 38.0835 5.11305 37.3163 5.63827C36.5485 6.16402 35.7999 6.80778 35.0731 7.56743C34.3452 8.32814 33.7061 9.0762 33.159 9.81373C32.6114 10.5507 32.2961 11.0422 32.211 11.2867L31.942 12.0658L30.977 14.8642C30.8292 15.2925 30.8744 16.0342 31.1136 17.0878C31.3524 18.143 31.7229 19.2414 32.2243 20.3856C32.7257 21.5299 33.3159 22.5919 33.9943 23.5728C34.6722 24.5543 35.3815 25.1701 36.1227 25.4214L37.0015 25.7195C37.6497 25.9387 38.4095 26.0093 39.2825 25.9287C40.1539 25.8486 41.0067 25.6258 41.841 25.2591C42.6736 24.893 43.4413 24.392 44.1426 23.7588C44.8434 23.1256 45.3421 22.3812 45.6383 21.5241L46.0806 20.2402L47.1265 17.2127C47.3477 16.5716 47.4391 16.0305 47.4024 15.5901C47.3641 15.1503 47.2679 14.7077 47.1116 14.2621C46.9547 13.8164 46.7681 13.3091 46.5507 12.7407C46.3337 12.1717 46.1561 11.4363 46.0184 10.536C45.835 10.2689 45.6447 9.94753 45.4474 9.57298C45.2485 9.19842 45.029 8.8344 44.7897 8.47986C44.551 8.12532 44.2841 7.79606 43.9932 7.4921C43.7013 7.18866 43.4009 6.98373 43.0936 6.87942L42.2142 6.58178C41.967 6.49854 41.6793 6.38423 41.3502 6.23778C41.0211 6.09343 40.6968 5.93223 40.3794 5.75575C40.03 5.56768 39.6552 5.35538 39.2538 5.11726Z" fill="white"/>
<path d="M59.4412 5.49342C59.4614 4.97767 59.5688 4.53674 59.7624 4.17272C59.9554 3.80817 60.2138 3.48682 60.5349 3.20761C60.856 2.92893 61.2171 2.66869 61.6179 2.42478C62.0199 2.18192 62.4373 1.94012 62.8717 1.69779C63.7718 1.18205 64.5965 0.762709 65.3451 0.435564C66.0921 0.109472 67.0034 -0.0348729 68.0795 0.0077983C68.7633 0.0341385 69.3662 0.0657468 69.8873 0.101043C70.4073 0.137919 70.9368 0.377615 71.4738 0.818024C71.9162 1.191 72.2187 1.59137 72.3814 2.01703C72.5441 2.4448 72.6133 2.96528 72.5893 3.57743C72.5771 3.90141 72.5064 4.23699 72.3788 4.58731C72.2501 4.93922 72.0747 5.25583 71.8513 5.53819C71.6275 5.82056 71.3579 6.04551 71.0416 6.20934C70.7242 6.37581 70.3881 6.45167 70.0292 6.43745C69.6698 6.42375 69.3891 6.32471 69.1849 6.1377C68.9792 5.95226 68.7915 5.75893 68.6203 5.55874C68.4485 5.35697 68.2598 5.16416 68.0556 4.97767C67.8499 4.79171 67.584 4.69267 67.2586 4.68003C66.8354 4.66423 66.401 4.68846 65.9586 4.75168C65.5157 4.81489 65.1101 4.93711 64.7448 5.11675C64.3785 5.29586 64.0743 5.52713 63.8356 5.80897C63.5964 6.09081 63.4682 6.44272 63.4517 6.861C63.4369 7.2482 63.5544 7.52899 63.8101 7.69967C64.0648 7.87141 64.3779 7.99732 64.7501 8.07476C65.1218 8.15536 65.5189 8.23491 65.9406 8.31604C66.3611 8.39769 66.7471 8.54098 67.0991 8.74907C67.9615 9.23531 68.7027 9.66782 69.3253 10.0471C69.9463 10.428 70.6529 10.9079 71.4467 11.4879C71.7338 11.6607 71.989 11.8082 72.2124 11.9299C72.4357 12.0516 72.6505 12.1649 72.8605 12.2702C73.0678 12.3756 73.2832 12.4978 73.507 12.6348C73.7293 12.7733 73.9834 12.9614 74.2679 13.1974C75.184 13.9781 75.9129 14.7578 76.4531 15.5385C76.9928 16.3203 77.2395 17.3233 77.1905 18.5503L77.1469 19.6645C77.1315 20.0527 77.1826 20.4025 77.3017 20.7139C77.4197 21.0263 77.4697 21.3919 77.4537 21.8117C77.4271 22.4897 77.2671 23.0339 76.9736 23.4422C76.6796 23.8515 76.392 24.3251 76.1091 24.8646C76.0336 25.1206 76.0246 25.3387 76.083 25.5183C76.1415 25.699 76.0857 25.8818 75.9145 26.0699C75.7678 26.4845 75.5455 26.7505 75.2467 26.8685C74.9484 26.9865 74.6629 27.2025 74.3896 27.5154C74.086 27.7625 73.8 27.9774 73.532 28.1608C73.2624 28.3446 72.9945 28.5211 72.727 28.687C72.4591 28.8562 72.1831 29.0137 71.8997 29.1654C71.6169 29.315 71.2761 29.4809 70.8762 29.659C70.2441 29.9898 69.6799 30.2201 69.1855 30.3454C68.6905 30.4729 68.1146 30.603 67.4559 30.7395C67.2246 30.7953 67.0241 30.8928 66.8567 31.0319C66.6871 31.1709 66.4723 31.2357 66.2123 31.2257C65.9193 31.2141 65.6917 31.1815 65.5317 31.1262C65.369 31.0714 65.1914 31.0398 64.9952 31.0329C64.5077 31.0139 64.1217 31.0477 63.8415 31.1341C63.5602 31.2205 63.2088 31.2552 62.785 31.2384C62.5245 31.2284 62.323 31.163 62.1799 31.045C62.038 30.926 61.8375 30.8296 61.5797 30.7553C61.2256 30.612 60.9097 30.543 60.6327 30.5482C60.3557 30.5535 60.0383 30.5172 59.6837 30.4392C59.3232 30.425 59.0339 30.3086 58.8149 30.0899C58.5953 29.8703 58.3108 29.6411 57.961 29.4014C57.6096 29.1933 57.2735 29.0421 56.9503 28.9499C56.6281 28.8562 56.2947 28.6254 55.9496 28.2566C55.5982 28.0486 55.4121 27.7915 55.3929 27.4822C55.3733 27.1746 55.2712 26.839 55.0899 26.476C54.8506 25.9171 54.639 25.4804 54.4561 25.1659C54.2732 24.8514 54.194 24.372 54.2195 23.7256C54.2557 22.7889 54.647 21.9882 55.3914 21.3202C56.1346 20.6543 57.0119 20.3409 58.0237 20.3799C58.6421 20.4036 59.2238 20.5637 59.7671 20.8593C60.31 21.1553 60.5711 21.5778 60.5498 22.1267C60.5413 22.3201 60.512 22.465 60.4583 22.5598C60.4057 22.6551 60.3775 22.7673 60.3727 22.8964C60.3626 23.1224 60.4046 23.3026 60.4982 23.4348C60.5907 23.567 60.6338 23.7151 60.6279 23.8763C60.6237 23.9421 60.5966 24.029 60.5439 24.1402C60.4897 24.2524 60.4621 24.3388 60.4599 24.4036C60.4408 24.8877 60.554 25.3044 60.8029 25.6542C61.049 26.003 61.3718 26.3069 61.7705 26.5651C62.1677 26.8227 62.6255 27.0197 63.1423 27.1519C63.6586 27.2852 64.178 27.3616 64.7001 27.3816C65.7433 27.4217 66.7051 27.2167 67.5883 26.7663C68.4709 26.3148 69.2711 25.6995 69.9878 24.9188C70.3956 24.5137 70.7375 24.0912 71.0177 23.6487C71.2957 23.2067 71.4494 22.6462 71.4749 21.9682C71.4898 21.581 71.4069 21.2133 71.2245 20.8666C71.0421 20.52 70.9581 20.1702 70.9725 19.8141C70.9783 19.6529 71.0065 19.5649 71.0565 19.5501C71.1054 19.5359 71.1325 19.4969 71.1346 19.4316C71.1548 18.9153 71.0325 18.4823 70.7694 18.1325C70.5046 17.7822 70.1659 17.4708 69.7533 17.1948C69.3391 16.9209 68.8845 16.6606 68.3879 16.4151C67.8913 16.1702 67.4038 15.9089 66.9258 15.6302C66.7982 15.5612 66.6966 15.4442 66.6211 15.2788C66.5467 15.1139 66.4287 14.997 66.2681 14.9264C65.9491 14.752 65.6258 14.6509 65.3015 14.6219C64.9761 14.5929 64.6714 14.4444 64.388 14.1736C64.1334 14.0024 63.9611 13.8264 63.8707 13.6447C63.7793 13.464 63.6081 13.2712 63.3544 13.0668C63.0019 12.8919 62.6877 12.7907 62.4118 12.7638C62.1353 12.7365 61.8226 12.5874 61.4749 12.315C61.2872 12.0816 61.124 11.8815 60.9836 11.7139C60.8433 11.5464 60.713 11.3315 60.5934 11.0675C60.3451 10.7357 60.0372 10.4638 59.6714 10.2552C59.3046 10.0476 59.1296 9.70206 59.1488 9.21687L59.1966 8.00628C59.2051 7.81241 59.195 7.61802 59.1711 7.4231C59.1456 7.22766 59.1382 7.01799 59.1472 6.79094C59.152 6.6624 59.1722 6.55756 59.2078 6.47749C59.2429 6.39847 59.2642 6.29469 59.2695 6.16615C59.2753 6.00389 59.3056 5.86797 59.3583 5.75682C59.4114 5.64724 59.4386 5.55874 59.4412 5.49342Z" fill="white"/>
<path d="M114.4 1.08458C115.052 1.08617 115.662 1.33903 116.232 1.84108C116.801 2.34365 117.313 2.80566 117.767 3.22552C118.028 4.00256 118.433 4.58573 118.989 4.97504C119.183 5.20209 119.378 5.44442 119.574 5.70308C119.769 5.9628 119.897 6.26992 119.962 6.62499C120.091 6.62499 120.223 6.76301 120.352 7.03906C120.482 7.31353 120.595 7.63751 120.692 8.00838C120.788 8.38136 120.87 8.72905 120.934 9.05145C120.998 9.37491 121.03 9.58563 121.031 9.68204C121.03 10.1346 120.945 10.635 120.782 11.1834C120.616 11.7334 120.411 12.2818 120.165 12.8302C119.919 13.3797 119.657 13.9039 119.378 14.4027C119.101 14.9043 118.862 15.3146 118.666 15.6376C118.535 15.8636 118.363 16.0416 118.151 16.1696C117.937 16.2987 117.733 16.4199 117.539 16.531C117.342 16.6459 117.171 16.7976 117.024 16.9909C116.876 17.1843 116.802 17.4424 116.801 17.7659C116.8 18.1215 116.896 18.5898 117.091 19.1724C117.285 19.7545 117.529 20.3361 117.821 20.9198C118.113 21.502 118.411 22.0193 118.721 22.4734C119.029 22.9259 119.281 23.202 119.477 23.2989C119.866 23.5597 120.216 23.8821 120.527 24.2703C120.834 24.6607 121.16 25.0479 121.501 25.4372C121.843 25.8254 122.209 26.1737 122.599 26.4824C122.99 26.7906 123.446 26.9923 123.968 27.0919C124.163 27.1567 124.472 27.2789 124.896 27.458C125.319 27.6371 125.645 27.8394 125.871 28.0665C126.068 28.2603 126.173 28.3989 126.19 28.479C126.205 28.5611 126.181 28.7297 126.116 28.9873C126.016 29.3435 125.779 29.6011 125.404 29.7623C125.027 29.9229 124.619 30.0267 124.18 30.0731C123.739 30.1215 123.339 30.1363 122.98 30.1189C122.621 30.102 122.41 30.0773 122.345 30.0436C122.116 29.8497 121.815 29.7517 121.44 29.7507C121.065 29.7501 120.764 29.717 120.535 29.6511C119.655 29.1322 119.036 28.7113 118.681 28.3862C118.322 28.0617 117.899 27.7541 117.41 27.4612C117.215 27.3637 116.971 27.1936 116.677 26.9502C116.385 26.7078 116.068 26.4239 115.726 26.1004C115.384 25.7765 115.043 25.4372 114.701 25.0795C114.36 24.7234 114.043 24.3989 113.749 24.1075C113.36 23.6202 113.028 23.1524 112.75 22.6983C112.474 22.2458 112.231 21.817 112.021 21.4119C111.81 21.0073 111.607 20.6354 111.412 20.2956C111.216 19.9558 111.005 19.6887 110.778 19.4933C110.322 19.2341 109.988 18.9912 109.777 18.7647C109.566 18.5382 109.232 18.4233 108.774 18.4223C108.383 18.4217 108.081 18.5418 107.868 18.7826C107.655 19.0254 107.491 19.3078 107.378 19.6297C107.262 19.9542 107.187 20.2929 107.153 20.648C107.12 21.0036 107.102 21.2944 107.102 21.5204L107.633 23.8004L107.631 24.7703C107.631 25.5462 107.881 26.1278 108.386 26.5166C108.889 26.907 109.435 27.2315 110.023 27.4912C110.608 27.752 111.153 28.0027 111.659 28.2466C112.163 28.4895 112.416 28.8551 112.415 29.3387C112.413 29.5652 112.298 29.7586 112.07 29.9198C111.841 30.081 111.63 30.161 111.434 30.161L109.672 30.1558L106.934 29.7607L105.857 29.7575L103.559 29.7512L102.726 29.7491L100.82 29.7438C100.722 29.7438 100.404 29.7196 99.8644 29.669C99.3268 29.619 98.7563 29.5363 98.1518 29.4219C97.5494 29.3071 97.0039 29.1443 96.5153 28.932C96.0261 28.7229 95.7826 28.4395 95.7832 28.0833C95.7842 27.9864 95.8337 27.8895 95.9315 27.792C96.0293 27.6956 96.1426 27.5992 96.275 27.5028C96.4052 27.3743 96.5695 27.2605 96.7641 27.1641C96.8619 27.1646 97.0098 27.182 97.2049 27.2141C97.4005 27.2468 97.5962 27.28 97.7919 27.3131C98.02 27.3458 98.2635 27.379 98.5261 27.4111L99.505 27.4138C100.155 27.4153 100.703 27.2315 101.146 26.8606C101.585 26.4908 101.808 26.0957 101.808 25.6753L101.822 20.5848L101.843 12.7322L102.244 9.24321C102.147 8.92028 102.083 8.5315 102.052 8.07897C102.021 7.62645 101.963 7.19815 101.885 6.79357C101.805 6.38951 101.658 6.02549 101.447 5.7015C101.236 5.37857 100.919 5.16679 100.494 5.06881L98.5862 5.06354C98.2273 5.06354 97.8679 5.03035 97.5111 4.96398C97.1517 4.89918 96.8173 4.78486 96.5089 4.62208C96.2 4.46088 95.9474 4.23224 95.7534 3.94092C95.5572 3.6496 95.4599 3.2624 95.4609 2.77774C95.4615 2.6808 95.5354 2.5765 95.6827 2.46271C95.8294 2.3505 95.9847 2.24514 96.149 2.14978C96.3436 2.02124 96.5716 1.90745 96.8338 1.8121L105.103 1.44597L110.144 1.45967C110.241 1.45967 110.42 1.44334 110.682 1.41278C110.942 1.38065 111.203 1.33271 111.465 1.26897C111.791 1.20522 112.134 1.14201 112.493 1.07721L114.4 1.08458ZM109.738 6.01548C109.607 6.04814 109.46 6.0808 109.298 6.11294C109.134 6.17721 108.955 6.23252 108.758 6.28046C108.562 6.3284 108.349 6.43376 108.121 6.59338C107.893 6.59286 107.672 6.69822 107.461 6.90683C107.247 7.11703 107.142 7.44733 107.14 7.90038L107.138 8.72378L107.132 10.615L107.129 11.4389C107.129 11.6976 107.063 11.932 106.933 12.1412C106.801 12.3514 106.735 12.5531 106.735 12.7475L106.929 12.845C106.995 12.9092 107.044 12.9656 107.077 13.0141C107.109 13.0625 107.125 13.1684 107.124 13.3296C107.025 13.6526 107.057 13.9518 107.22 14.2263C107.382 14.5018 107.611 14.7452 107.904 14.9554C108.196 15.1661 108.513 15.3289 108.857 15.4432C109.198 15.557 109.483 15.6139 109.711 15.6144C110.004 15.4869 110.299 15.3589 110.592 15.2293C110.854 15.1329 111.091 15.037 111.304 14.9406C111.515 14.8437 111.703 14.7963 111.867 14.7963L112.843 15.1877C113.267 15.1877 113.627 15.0202 113.922 14.6814C114.216 14.3422 114.453 13.9555 114.634 13.5198C114.813 13.0841 114.955 12.6643 115.054 12.2602C115.153 11.8562 115.234 11.5907 115.301 11.4605L115.012 10.1024C115.011 9.87801 114.989 9.65886 114.938 9.44919C114.89 9.23794 114.736 9.00352 114.475 8.74433C114.476 8.55046 114.453 8.25967 114.406 7.87088C114.357 7.48316 114.202 7.19183 113.942 6.99744C113.845 6.99744 113.607 6.9474 113.234 6.84941C112.858 6.75195 112.45 6.63816 112.011 6.50751C111.571 6.37792 111.132 6.26255 110.691 6.16456C110.252 6.06605 109.933 6.01758 109.738 6.01548Z" fill="white"/>
<path d="M145.44 11.6812C145.372 11.5859 145.303 11.4747 145.236 11.3472C145.099 11.0917 145.028 10.8842 145.024 10.7214L144.966 8.44403L144.456 5.74205L144.433 4.82014C144.424 4.4656 144.304 4.23433 144.073 4.12581C143.841 4.01834 143.596 3.93669 143.332 3.87768C142.972 3.8229 142.651 3.76653 142.373 3.70858C142.095 3.6501 141.952 3.46098 141.943 3.13752C141.935 2.84567 141.993 2.56278 142.117 2.28463C142.239 2.00753 142.389 1.74412 142.561 1.49653C142.733 1.25051 142.933 1.05085 143.158 0.900184C143.382 0.749517 143.592 0.670497 143.788 0.666809C144.252 0.881745 144.711 1.04822 145.172 1.16517C145.567 1.31794 146.01 1.43489 146.502 1.51971C146.994 1.60399 147.467 1.64192 147.924 1.63033L149.831 1.58187C150.157 1.57344 150.532 1.52392 150.954 1.43226C151.376 1.34165 151.774 1.2995 152.15 1.30582C152.524 1.31267 152.846 1.41593 153.112 1.6198C153.378 1.82578 153.519 2.23353 153.534 2.84673C153.642 3.16702 153.713 3.47257 153.754 3.76284C153.793 4.02045 153.807 4.26278 153.799 4.48825C153.788 4.71583 153.717 4.87809 153.589 4.97923L152.22 5.01295L151.242 5.03718C150.851 5.04772 150.539 5.25791 150.303 5.66619C150.069 6.07709 149.957 6.50802 149.969 6.96002C149.817 7.44942 149.731 7.83926 149.706 8.13005C149.68 8.42243 149.702 8.6479 149.772 8.80805C149.808 9.00139 149.895 9.14415 150.027 9.23792L149.485 10.998C149.653 11.2514 149.767 11.5158 149.823 11.7882C149.879 12.0626 149.942 12.3113 150.013 12.5352C150.054 12.826 150.092 13.0836 150.132 13.308C150.133 13.4055 150.105 13.5509 150.046 13.7468C149.984 13.9423 149.924 14.1541 149.865 14.3827C149.806 14.6097 149.745 14.8373 149.687 15.0644C149.628 15.2935 149.599 15.4716 149.602 15.6007L149.626 16.5221C149.631 16.6516 149.616 16.8128 149.59 17.0078C149.561 17.2011 149.519 17.4139 149.459 17.6405C149.401 17.9007 149.342 18.1615 149.284 18.4212C149.289 18.6472 149.327 18.8484 149.397 19.0244C149.465 19.2003 149.536 19.3689 149.605 19.528C149.674 19.656 149.71 19.8088 149.716 19.9863C149.721 20.1639 149.724 20.3667 149.73 20.5927C149.742 21.0452 149.718 21.3518 149.655 21.5156C149.466 21.7137 149.377 22.0403 149.388 22.4918C149.4 22.9433 149.223 23.41 148.86 23.8873C148.497 24.3656 148.113 24.981 147.708 25.7338C147.719 26.1547 147.523 26.5234 147.125 26.8406C146.725 27.1577 146.303 27.5317 145.857 27.9627C145.634 28.2277 145.46 28.4331 145.334 28.5811C145.207 28.7302 145.088 28.8556 144.977 28.9541C144.865 29.0537 144.737 29.138 144.591 29.2059C144.446 29.2749 144.245 29.3608 143.986 29.4646C142.922 29.9751 141.869 30.2848 140.829 30.3923C139.788 30.4987 139.039 30.5582 138.583 30.5704C138.027 30.5835 137.415 30.5661 136.745 30.5187C136.074 30.4718 135.404 30.3744 134.731 30.2306C134.059 30.0846 133.409 29.9082 132.784 29.6969C132.158 29.4867 131.629 29.2091 131.197 28.8646L130.185 27.5317C129.913 27.1841 129.677 26.8016 129.469 26.3865C129.264 25.9724 129.074 25.5889 128.901 25.2365C128.696 24.8234 128.505 24.3904 128.33 23.9416L128.247 20.6943C128.236 20.2429 128.134 19.7851 127.944 19.321C127.752 18.8574 127.647 18.2537 127.628 17.5098L127.559 14.7973C127.615 14.4723 127.688 14.1477 127.778 13.8211C127.837 13.5609 127.895 13.3017 127.955 13.0415C128.012 12.7812 128.041 12.6026 128.038 12.5052C127.929 12.0553 127.82 11.6549 127.712 11.3014C127.532 10.5955 127.438 10.0956 127.432 9.80424C127.49 9.54505 127.564 9.28586 127.657 9.02299C127.715 8.79593 127.775 8.58416 127.836 8.38819C127.895 8.19327 127.924 8.03049 127.92 7.90142L127.853 5.23579C127.848 5.01031 127.647 4.82172 127.252 4.66947C126.855 4.51775 126.419 4.39185 125.945 4.28912C125.469 4.18903 125.042 4.08735 124.663 3.98199C124.286 3.87979 124.112 3.74651 124.14 3.58373C124.129 3.16439 124.297 2.73926 124.645 2.30991C124.993 1.88215 125.395 1.66089 125.853 1.6493L128.187 1.05717L129.115 1.03452C129.311 1.02872 129.697 1.10933 130.272 1.27158C130.846 1.43489 131.38 1.51022 131.87 1.49811L135.928 1.39643C136.384 1.38379 136.657 1.4744 136.743 1.66668C136.828 1.85844 136.875 2.01859 136.878 2.14766C136.895 2.8599 136.81 3.35509 136.621 3.63325C136.434 3.91351 136.184 4.09842 135.877 4.18586C135.57 4.27437 135.245 4.32283 134.903 4.33179C134.56 4.34022 134.235 4.42135 133.93 4.57412C133.623 4.72742 133.378 5.00873 133.194 5.41806C133.009 5.82686 132.927 6.48326 132.95 7.38831C132.953 7.48524 132.974 7.63749 133.011 7.84716C133.048 8.05735 133.095 8.28125 133.15 8.52199C133.205 8.76327 133.26 8.98874 133.314 9.19736C133.369 9.40545 133.396 9.55927 133.399 9.65621L133.434 11.0133L133.62 18.2821L133.703 21.5288C133.517 21.9545 133.477 22.2216 133.577 22.3317C133.678 22.4428 133.731 22.6277 133.738 22.8864L134.31 24.1802C134.647 24.657 134.967 25.0363 135.269 25.3202C135.57 25.6042 135.9 25.8302 136.264 25.9987C136.628 26.1684 137.054 26.2779 137.546 26.3301C138.036 26.3833 138.655 26.3996 139.407 26.3807C139.635 26.3749 140.023 26.2674 140.574 26.0593C141.122 25.8523 141.638 25.6136 142.121 25.3423C142.213 25.1142 142.36 24.8925 142.569 24.6765C142.774 24.4615 143.02 24.1655 143.305 23.7851C143.588 23.4074 143.894 22.9143 144.221 22.3069C144.548 21.7016 144.896 20.8935 145.261 19.8804L145.212 17.9903C145.207 17.7648 145.211 17.3444 145.229 16.7301C145.244 16.1159 145.269 15.4679 145.301 14.7883C145.334 14.1088 145.365 13.4697 145.4 12.8702C145.43 12.2713 145.445 11.8746 145.44 11.6812Z" fill="white"/>
<path d="M182.458 2.26726C182.929 2.78511 183.165 3.2861 183.165 3.77076C183.166 4.35235 182.879 4.78117 182.308 5.05511C181.738 5.32957 181.101 5.52344 180.4 5.63565C179.699 5.74944 179.03 5.80317 178.395 5.8037C177.758 5.8037 177.391 5.80317 177.293 5.80212C177.032 5.99704 176.649 6.24674 176.144 6.55387C175.637 6.861 175.253 7.14389 174.993 7.40044C174.602 7.78923 174.184 8.24175 173.744 8.75749C173.303 9.27429 172.895 9.77528 172.519 10.2584C172.145 10.7446 171.825 11.1971 171.565 11.6154C171.303 12.0369 171.174 12.3429 171.174 12.5373C171.171 12.796 171.253 13.0215 171.417 13.2153C171.581 13.4097 171.775 13.7174 172.003 14.1372C172.231 14.525 172.5 14.8895 172.81 15.2282C173.121 15.568 173.421 15.8841 173.714 16.1749C174.008 16.4657 174.284 16.7159 174.546 16.9261C174.807 17.1374 175.002 17.2896 175.132 17.3871C175.36 17.6152 175.604 17.9213 175.866 18.3095C176.126 18.6967 176.395 19.1013 176.672 19.5217C176.949 19.9416 177.234 20.3535 177.528 20.7581C177.821 21.1632 178.147 21.4772 178.506 21.7042C178.766 21.964 179.1 22.2542 179.508 22.5782C179.916 22.9006 180.315 23.2404 180.706 23.5971C181.162 23.9843 181.651 24.3894 182.174 24.8098H183.152C183.413 24.8098 183.771 24.795 184.229 24.7618C184.684 24.7313 185.042 24.8767 185.305 25.2001C185.467 25.394 185.661 25.7412 185.89 26.2421C186.118 26.7437 186.224 27.2431 186.208 27.7451C186.191 28.2461 185.961 28.6981 185.521 29.1011C185.081 29.5057 184.29 29.7222 183.149 29.7559C182.595 29.7559 182.152 29.7465 181.826 29.7301C181.502 29.7117 181.206 29.6732 180.948 29.6095C180.686 29.5431 180.416 29.4451 180.139 29.3176C179.864 29.1886 179.494 29.0247 179.039 28.8314L178.111 28.2977C177.687 28.135 177.286 27.8779 176.911 27.5202C176.537 27.1651 176.169 26.7458 175.811 26.2606C175.127 25.5162 174.354 24.6191 173.491 23.567C172.626 22.5166 171.854 21.5241 171.168 20.5843C170.711 19.7777 170.241 19.0086 169.75 18.2811C169.262 17.553 168.79 16.9793 168.334 16.5589C167.845 16.2034 167.387 16.0253 166.965 16.0253C166.769 16.0253 166.564 16.1222 166.353 16.315C166.14 16.5089 166.035 16.6875 166.034 16.8482C166.034 17.3987 166.123 17.9724 166.301 18.5692C166.48 19.1687 166.571 19.6597 166.571 20.0474V21.0178L166.96 21.9387L166.958 23.2968C166.959 24.2013 167.218 24.8646 167.74 25.2855C168.262 25.7059 168.841 26.0119 169.477 26.2069C170.112 26.4007 170.692 26.5561 171.213 26.6699C171.735 26.7821 171.997 27.0007 171.996 27.3237C171.997 27.7114 171.897 28.0343 171.702 28.2925C171.506 28.5511 171.277 28.7619 171.017 28.9236C170.755 29.0837 170.502 29.1965 170.258 29.2618C170.013 29.325 169.857 29.3587 169.793 29.3582L169.108 29.1148C168.913 29.1148 168.79 29.1554 168.741 29.236C168.693 29.3161 168.602 29.3577 168.473 29.3566L166.026 29.3545C165.733 29.3224 165.455 29.2576 165.194 29.1606C164.964 29.0958 164.737 29.0147 164.509 28.9178C164.281 28.8203 164.102 28.6913 163.971 28.5295H162.601C162.471 28.529 162.161 28.5848 161.672 28.6986C161.182 28.8103 160.643 28.9404 160.057 29.0837C159.47 29.2291 158.874 29.3577 158.271 29.4699C157.667 29.5826 157.202 29.6406 156.877 29.639L156.338 29.6395C156.076 29.6395 155.799 29.5652 155.507 29.4198C155.213 29.2744 155.034 29.0242 154.969 28.6691C154.969 28.4742 155.044 28.2087 155.189 27.8694C155.336 27.5302 155.532 27.1899 155.778 26.8511C156.023 26.5113 156.275 26.2137 156.537 25.955C156.797 25.6969 157.058 25.5678 157.321 25.5678H157.712L159.229 25.1806L160.99 25.1827C161.185 25.1827 161.298 25.0784 161.332 24.8672C161.365 24.6575 161.382 24.4394 161.382 24.2129L161.382 23.2915C161.414 23.0992 161.449 22.9054 161.481 22.7115C161.546 22.2916 161.514 21.9023 161.383 21.5467C161.221 20.933 161.18 20.343 161.263 19.7767C161.344 19.2125 161.386 18.7204 161.386 18.3L161.387 17.3776L161.388 15.488C161.387 15.0691 161.371 14.6561 161.339 14.2515C161.307 13.848 161.194 13.5325 160.998 13.3065L160.999 11.027C161.064 10.5755 161.129 10.172 161.196 9.81532C161.261 9.49344 161.31 9.18526 161.343 8.89499C161.375 8.60367 161.393 8.37767 161.392 8.21594C161.394 7.21501 161.133 6.5191 160.612 6.13084C160.089 5.74364 159.51 5.46812 158.874 5.30534C158.24 5.14361 157.659 4.98979 157.139 4.84333C156.616 4.69741 156.355 4.33444 156.355 3.75337C156.356 3.36617 156.462 3.05062 156.674 2.80776C156.885 2.56543 157.139 2.37157 157.433 2.22722C157.727 2.08077 158.037 1.98436 158.362 1.93643C158.689 1.88796 158.982 1.86373 159.244 1.86425H160.026L160.564 1.86478C160.664 1.86478 160.841 1.88901 161.104 1.93748C161.364 1.98594 161.632 2.03546 161.91 2.08393C162.187 2.1324 162.455 2.17296 162.718 2.20457C162.979 2.23828 163.175 2.25409 163.305 2.25409L164.674 2.25514L166.583 1.86847C166.973 1.86899 167.431 1.98331 167.953 2.20931C168.474 2.43531 168.735 2.82356 168.735 3.37302C168.734 3.56689 168.726 3.74547 168.709 3.90615C168.693 4.0684 168.62 4.14848 168.49 4.14795C168.196 4.14795 167.911 4.22803 167.632 4.38923C167.356 4.55201 167.095 4.75272 166.85 4.99505C166.605 5.23738 166.41 5.52871 166.262 5.86692C166.116 6.20618 166.043 6.53754 166.041 6.86047V7.78132C166.041 8.10478 166.122 8.63896 166.284 9.38228C166.382 9.76843 166.481 10.1899 166.578 10.6424V11.0296C166.641 11.2245 166.723 11.3868 166.821 11.5143C166.887 11.6444 166.968 11.7561 167.066 11.8546C167.164 11.9515 167.261 11.9995 167.359 11.9995C167.523 12 167.661 11.9357 167.775 11.8056C167.889 11.6781 168.029 11.5153 168.191 11.3225C168.746 10.6118 169.383 9.57773 170.102 8.22121C170.461 7.60801 170.803 6.9848 171.132 6.35526C171.456 5.72521 171.8 5.13624 172.159 4.58731C172.616 3.74705 173.074 3.08433 173.53 2.6002C173.988 2.11501 174.38 1.87374 174.705 1.87374L175.293 1.87479C175.554 1.87426 175.741 1.80999 175.854 1.6804C175.97 1.55291 176.223 1.48706 176.614 1.48706L180.724 1.49075C181.406 1.49127 181.985 1.75099 182.458 2.26726Z" fill="white"/>
<path d="M205.299 2.5475L206.876 3.44149L207.817 3.70489C208.189 3.94353 208.531 4.17427 208.841 4.39553C209.119 4.6073 209.386 4.80854 209.636 4.99503C209.887 5.18416 210.046 5.33851 210.112 5.45704C210.513 5.83845 210.995 6.19931 211.558 6.54173C212.123 6.88521 212.546 7.33141 212.829 7.88087C213.019 8.16903 213.171 8.61418 213.287 9.21737C213.4 9.82109 213.556 10.2673 213.744 10.5555C214.552 11.755 214.988 12.8102 215.052 13.7184C215.116 14.6256 215.053 15.4057 214.868 16.059L213.847 19.0992L213.475 20.4046C213.377 20.7481 213.096 21.2227 212.636 21.8312C212.173 22.4412 211.655 23.0686 211.082 23.714C210.507 24.3588 209.973 24.9567 209.476 25.5056C208.98 26.0556 208.659 26.4102 208.512 26.5708C208.106 27.1624 207.567 27.5897 206.898 27.8552C206.23 28.1218 205.593 28.3046 204.99 28.4047C203.954 28.8198 202.994 29.188 202.106 29.5104C201.216 29.8323 200.318 29.8671 199.407 29.6105C199.029 29.5057 198.673 29.3629 198.334 29.1843C197.995 29.0052 197.511 28.8282 196.884 28.6523C196.757 28.618 196.6 28.5811 196.407 28.5427C196.213 28.5053 196.003 28.4731 195.775 28.4421C195.515 28.402 195.258 28.3478 195.009 28.2777L194.209 28.0533C193.957 27.9827 193.649 27.8457 193.283 27.6424C192.917 27.439 192.584 27.2125 192.282 26.9586C191.919 26.6899 191.534 26.3807 191.124 26.0303C190.382 25.4203 189.638 24.7671 188.887 24.0685C188.137 23.3731 187.646 22.4191 187.415 21.2138C187.199 19.4743 187.055 17.6873 186.987 15.8541C186.917 14.0213 187.102 12.326 187.546 10.7725C187.636 10.4612 187.746 10.1899 187.881 9.95912C188.013 9.72732 188.166 9.49342 188.335 9.25583C188.505 9.01771 188.693 8.77538 188.899 8.53095C189.103 8.28651 189.33 7.96358 189.582 7.56426C189.714 7.09751 189.909 6.68133 190.166 6.31679C190.422 5.95224 190.742 5.57188 191.128 5.17573C191.155 5.08196 191.38 4.82698 191.804 4.40817C192.229 3.99042 192.724 3.55686 193.291 3.11276C193.859 2.66603 194.436 2.28199 195.02 1.95906C195.604 1.63613 196.052 1.51654 196.366 1.6061L197.83 1.46228C198.238 1.5766 198.611 1.66457 198.952 1.72568C199.289 1.78785 199.658 1.77257 200.055 1.68301C200.445 1.62348 200.814 1.58397 201.157 1.56343C201.502 1.54235 201.832 1.57449 202.146 1.66352L204.405 2.29674L205.299 2.5475ZM200.214 5.05087C199.68 4.90179 199.043 5.10935 198.306 5.67566C197.569 6.24198 196.857 6.92472 196.173 7.72177C195.486 8.52094 194.89 9.30272 194.384 10.0687C193.877 10.8331 193.588 11.3393 193.518 11.5875L193.291 12.3814L192.479 15.2266C192.356 15.6623 192.441 16.3988 192.738 17.4392C193.033 18.4802 193.461 19.5575 194.025 20.6727C194.59 21.7869 195.236 22.8174 195.967 23.7598C196.697 24.7039 197.44 25.2802 198.194 25.492L199.087 25.7432C199.747 25.9281 200.51 25.9582 201.377 25.8291C202.243 25.7032 203.082 25.4345 203.893 25.0236C204.706 24.6132 205.445 24.0727 206.111 23.4037C206.777 22.7331 207.233 21.9639 207.482 21.0926L207.855 19.7867L208.734 16.707C208.92 16.0553 208.98 15.5095 208.921 15.0733C208.859 14.6361 208.737 14.1988 208.557 13.7611C208.376 13.3254 208.162 12.8286 207.915 12.2713C207.667 11.7155 207.45 10.9917 207.264 10.1003C207.066 9.84269 206.857 9.5324 206.639 9.16891C206.42 8.80541 206.182 8.45351 205.923 8.11161C205.666 7.77182 205.382 7.45679 205.074 7.16916C204.766 6.88099 204.456 6.69345 204.142 6.60653L203.247 6.35524C202.994 6.28412 202.703 6.18667 202.366 6.0576C202.029 5.93064 201.697 5.78682 201.37 5.62825C201.013 5.46073 200.626 5.26792 200.214 5.05087Z" fill="white"/>
<path d="M220.632 5.14307C220.679 4.62785 220.807 4.19324 221.02 3.83817C221.231 3.48416 221.504 3.17651 221.84 2.91363C222.175 2.65234 222.549 2.41001 222.962 2.18717C223.374 1.9638 223.804 1.74202 224.25 1.52129C225.178 1.0519 226.021 0.675238 226.785 0.383915C227.546 0.0946991 228.464 -0.00275973 229.537 0.0931187C230.219 0.153174 230.82 0.214284 231.337 0.276447C231.857 0.34019 232.372 0.604119 232.888 1.0714C233.31 1.4665 233.594 1.88057 233.733 2.31465C233.874 2.74874 233.916 3.27239 233.86 3.88348C233.832 4.20536 233.745 4.5383 233.598 4.88125C233.454 5.22736 233.262 5.53343 233.025 5.80474C232.787 6.07551 232.507 6.28624 232.181 6.43479C231.856 6.58546 231.517 6.64499 231.158 6.61285C230.801 6.58072 230.525 6.46798 230.329 6.27096C230.134 6.07604 229.955 5.87375 229.795 5.66408C229.633 5.45441 229.455 5.25264 229.26 5.05825C229.065 4.86176 228.806 4.74849 228.479 4.72057C228.057 4.68264 227.624 4.68528 227.178 4.72689C226.732 4.76904 226.321 4.86966 225.947 5.02981C225.572 5.19259 225.258 5.40858 225.004 5.67778C224.75 5.94697 224.605 6.2915 224.568 6.70873C224.534 7.09488 224.637 7.38094 224.883 7.56479C225.13 7.7497 225.435 7.89088 225.803 7.98781C226.171 8.08475 226.564 8.18484 226.979 8.28546C227.395 8.38871 227.774 8.55202 228.114 8.77697C228.951 9.30483 229.67 9.77421 230.271 10.1841C230.872 10.595 231.556 11.1086 232.32 11.7281C232.597 11.9162 232.844 12.0763 233.061 12.2096C233.279 12.3408 233.488 12.4651 233.691 12.5816C233.892 12.6959 234.103 12.8292 234.319 12.9777C234.534 13.1263 234.778 13.3265 235.051 13.5772C235.924 14.4022 236.612 15.2166 237.113 16.0226C237.613 16.8302 237.809 17.8459 237.698 19.0692L237.597 20.1791C237.563 20.5648 237.596 20.9167 237.699 21.2348C237.8 21.5525 237.834 21.9202 237.796 22.338C237.734 23.0139 237.547 23.5491 237.232 23.9432C236.918 24.3356 236.606 24.7966 236.297 25.3197C236.208 25.5715 236.189 25.7891 236.239 25.9708C236.288 26.1557 236.223 26.3348 236.044 26.5145C235.876 26.9207 235.639 27.1756 235.335 27.2789C235.033 27.3816 234.735 27.5834 234.446 27.8815C234.131 28.1133 233.832 28.3151 233.556 28.4832C233.278 28.6533 233.001 28.8166 232.727 28.9689C232.45 29.1232 232.166 29.2686 231.875 29.4056C231.585 29.5415 231.235 29.6906 230.829 29.8481C230.179 30.1463 229.603 30.347 229.104 30.4508C228.604 30.5509 228.021 30.6536 227.357 30.7568C227.123 30.8011 226.919 30.8885 226.743 31.0192C226.568 31.1493 226.35 31.2036 226.09 31.1809C225.798 31.1551 225.572 31.1098 225.416 31.0482C225.257 30.9844 225.079 30.9449 224.886 30.9281C224.397 30.8838 224.01 30.8991 223.728 30.9707C223.441 31.0424 223.088 31.0603 222.666 31.0239C222.405 30.9997 222.208 30.9259 222.072 30.8C221.936 30.6736 221.741 30.5672 221.488 30.4797C221.141 30.3191 220.828 30.2348 220.551 30.2269C220.274 30.2184 219.96 30.1663 219.608 30.0709C219.251 30.0383 218.967 29.9082 218.759 29.6785C218.552 29.4483 218.278 29.2065 217.942 28.9483C217.6 28.7244 217.272 28.5569 216.955 28.4468C216.636 28.3393 216.316 28.0907 215.991 27.7056C215.651 27.4812 215.478 27.2141 215.474 26.9048C215.469 26.5972 215.384 26.2569 215.221 25.8855C215.011 25.3155 214.822 24.8687 214.654 24.5453C214.488 24.2234 214.433 23.7393 214.491 23.095C214.576 22.1615 215.007 21.3802 215.784 20.7518C216.56 20.1222 217.454 19.8536 218.462 19.9426C219.077 19.9979 219.649 20.186 220.178 20.5094C220.704 20.8318 220.944 21.267 220.896 21.8138C220.879 22.0061 220.84 22.1483 220.784 22.2421C220.725 22.3343 220.691 22.4449 220.679 22.5724C220.659 22.7989 220.691 22.9802 220.778 23.1171C220.863 23.2541 220.899 23.4042 220.884 23.5644C220.88 23.6302 220.846 23.7161 220.788 23.8241C220.73 23.9331 220.696 24.019 220.69 24.0828C220.647 24.5658 220.739 24.9878 220.969 25.3492C221.199 25.7101 221.505 26.0298 221.888 26.3069C222.272 26.584 222.718 26.8026 223.23 26.9617C223.739 27.1203 224.253 27.2225 224.775 27.2689C225.813 27.3611 226.785 27.2041 227.689 26.7979C228.592 26.3907 229.425 25.8149 230.178 25.0716C230.607 24.6881 230.97 24.2819 231.273 23.8546C231.571 23.4269 231.753 22.8748 231.813 22.1994C231.849 21.8128 231.784 21.444 231.619 21.0873C231.455 20.7312 231.389 20.3767 231.421 20.0232C231.435 19.862 231.469 19.7767 231.519 19.764C231.568 19.7519 231.596 19.7134 231.605 19.6486C231.649 19.135 231.55 18.6956 231.304 18.3337C231.059 17.9697 230.736 17.6431 230.339 17.346C229.939 17.052 229.497 16.7702 229.016 16.4989C228.531 16.2307 228.058 15.9447 227.594 15.6428C227.47 15.5675 227.373 15.4453 227.308 15.2767C227.241 15.1097 227.129 14.9869 226.973 14.9074C226.662 14.7172 226.345 14.5992 226.022 14.5544C225.698 14.5102 225.402 14.3458 225.133 14.0619C224.887 13.8775 224.723 13.6936 224.643 13.5061C224.562 13.3228 224.399 13.121 224.158 12.9055C223.814 12.7111 223.505 12.5952 223.231 12.5542C222.957 12.5136 222.652 12.3492 222.319 12.06C222.142 11.8182 221.989 11.6091 221.859 11.4347C221.728 11.2603 221.607 11.0401 221.501 10.7704C221.27 10.4253 220.977 10.1403 220.622 9.91329C220.263 9.68676 220.109 9.33275 220.151 8.85125L220.26 7.64381C220.277 7.451 220.278 7.25556 220.264 7.05906C220.249 6.86361 220.252 6.65342 220.272 6.42795C220.284 6.29941 220.309 6.19615 220.35 6.11818C220.39 6.04127 220.416 5.93696 220.427 5.80895C220.442 5.64827 220.477 5.51341 220.536 5.40489C220.595 5.29637 220.627 5.20892 220.632 5.14307Z" fill="white"/>
<path d="M69.2475 41.8208L75.4379 41.8261C78.778 41.8277 81.0866 43.3638 81.0813 46.8992C81.077 50.5352 79.0959 52.1304 75.5682 52.1251L73.2798 52.1246L73.2718 57.2351L69.2305 57.2304L69.2475 41.8208ZM73.2825 48.8942L73.9636 48.8958C75.4305 48.8958 76.8719 48.8979 76.874 47.0177C76.8772 45.0754 75.5342 45.0517 73.9678 45.0527L73.2873 45.0506L73.2825 48.8942Z" fill="white"/>
<path d="M86.7765 42.7348C86.7786 43.8785 85.8296 44.8189 84.6731 44.8173C83.5172 44.8183 82.5708 43.8748 82.5703 42.7306C82.5756 41.5864 83.5215 40.6497 84.6763 40.6503C85.8327 40.6508 86.7786 41.5911 86.7765 42.7348ZM86.5362 57.2473L82.7814 57.2425L82.7926 46.7575L86.5484 46.7617L86.5362 57.2473Z" fill="white"/>
<path d="M96.6482 50.1859C96.0926 49.7787 95.4365 49.45 94.7128 49.4494C93.2672 49.4468 92.131 50.5489 92.1283 51.9992C92.1278 53.5116 93.222 54.5789 94.7687 54.5784C95.429 54.5784 96.1484 54.3129 96.6455 53.863L96.6434 57.0117C95.8161 57.4205 94.9074 57.6023 94.0025 57.6033C90.8677 57.5975 88.2528 55.2875 88.2539 52.1188C88.2587 48.7451 90.8586 46.4203 94.1796 46.4235C95.0478 46.4261 95.9123 46.6279 96.6519 47.0404L96.6482 50.1859Z" fill="white"/>
<path d="M102.744 40.3031L102.734 48.1082H102.776C103.642 46.9661 104.692 46.4361 106.16 46.4372C108.842 46.4409 110.137 48.1993 110.134 50.8544L110.127 57.2736L106.375 57.2683L106.381 51.8944C106.381 50.668 106.198 49.4015 104.69 49.4005C103.209 49.3973 102.733 50.6643 102.732 51.8907L102.722 57.2662L98.9688 57.2604L98.9874 40.301L102.744 40.3031Z" fill="white"/>
<path d="M116.6 42.7659C116.599 43.9132 115.646 44.8515 114.492 44.851C113.337 44.8494 112.393 43.9069 112.391 42.7627C112.392 41.6206 113.341 40.6818 114.499 40.6818C115.652 40.6829 116.601 41.6227 116.6 42.7659ZM116.356 57.2788L112.602 57.2751L112.613 46.7901L116.368 46.7949L116.356 57.2788Z" fill="white"/>
<path d="M122.583 57.2873L118.828 57.2836L118.847 40.3189L122.603 40.3226L122.583 57.2873Z" fill="white"/>
<path d="M135.935 52.6819L128.034 52.6756C128.034 54.1838 128.837 55.0025 130.384 55.0051C131.189 55.0057 131.766 54.7417 132.181 54.0458L135.79 54.0495C135.499 55.2738 134.756 56.1715 133.787 56.7652C132.813 57.3573 131.619 57.6439 130.399 57.6407C126.896 57.6365 124.278 55.6715 124.281 52.0545C124.286 48.5591 126.705 46.4593 130.147 46.4625C133.817 46.4662 135.941 48.7151 135.937 52.2905L135.935 52.6819ZM132.45 50.5315C132.267 49.5285 131.337 48.8737 130.329 48.8726C129.235 48.8721 128.326 49.4431 128.099 50.5252L132.45 50.5315Z" fill="white"/>
<path d="M141.402 48.1293L141.444 48.1314C142.333 46.9634 143.426 46.4761 144.788 46.4788C146.314 46.4788 147.635 47.0941 148.395 48.4827C149.119 47.1794 150.544 46.4851 151.987 46.4856C154.671 46.4883 155.595 48.2246 155.59 50.6353L155.582 57.3215L151.83 57.3183L151.833 52.31C151.837 51.2274 151.879 49.4499 150.293 49.4478C148.56 49.4442 148.496 51.0593 148.494 52.3063L148.489 57.3141L144.734 57.3094L144.741 52.3037C144.742 51.1384 144.741 49.3593 143.071 49.3578C141.401 49.3562 141.398 51.1347 141.398 52.2984L141.392 57.3067L137.641 57.3014L137.651 46.817L141.405 46.8201L141.402 48.1293Z" fill="white"/>
<path d="M161.741 46.8433L161.735 52.4438C161.734 53.7693 162.061 54.7107 163.611 54.7133C165.158 54.7138 165.489 53.775 165.488 52.4491L165.496 46.8486L169.251 46.8528L169.243 53.1661C169.238 56.6208 166.785 57.6813 163.609 57.6766C160.429 57.6729 157.976 56.6093 157.98 53.1529L157.986 46.8397L161.741 46.8433Z" fill="white"/>
</svg>
